<svg width="40" height="40" viewBox="0 0 40 40" fill="none" xmlns="http://www.w3.org/2000/svg">
<g id="docker logo" clip-path="url(#clip0_1142_3118)">
<path id="Vector" d="M39.6265 17.2946C38.6457 16.6345 36.0691 16.353 34.196 16.8573C34.0952 14.9912 33.1328 13.4185 31.3723 12.0472L30.721 11.6099L30.2866 12.2659C29.4333 13.5613 29.0736 15.2881 29.2004 16.8579C29.3011 17.825 29.6371 18.9118 30.2866 19.7006C27.8481 21.1151 25.601 20.7939 15.6478 20.7939H0.281292C0.236255 23.0416 0.597736 27.3646 3.34677 30.884C3.65018 31.2727 3.98322 31.649 4.3447 32.0111C6.57996 34.2493 9.95714 35.8908 15.0072 35.8949C22.7109 35.902 29.3118 31.7373 33.3272 21.6686C34.6487 21.6905 38.1361 21.905 39.8428 18.6072C39.8843 18.5515 40.2771 17.7326 40.2771 17.7326L39.6265 17.2952V17.2946ZM10.3097 14.9752H5.98855V19.2964H10.3097V14.9752ZM15.8926 14.9752H11.5714V19.2964H15.8926V14.9752ZM21.4754 14.9752H17.1542V19.2964H21.4754V14.9752ZM27.0582 14.9752H22.737V19.2964H27.0582V14.9752ZM4.72811 14.9752H0.405736V19.2964H4.72692V14.9752H4.72811ZM10.3109 9.51686H5.98974V13.838H10.3109V9.51686ZM15.8937 9.51686H11.5726V13.838H15.8937V9.51686ZM21.4766 9.51686H17.1554V13.838H21.4766V9.51686ZM21.4748 4.05908H17.1536V8.38027H21.4748V4.05908Z" fill="#1D63ED"/>
</g>
<defs>
<clipPath id="clip0_1142_3118">
<rect width="40" height="40" fill="white"/>
</clipPath>
</defs>
</svg>
