<svg width="36" height="32" viewBox="0 0 36 32" fill="none" xmlns="http://www.w3.org/2000/svg">
<g id="logo_art">
<g id="Group">
<g id="Group_2">
<path id="path50_5_" d="M17.9893 31.9964L24.3892 12.3105H11.5986L17.9893 31.9964Z" fill="#E24329"/>
<path id="path66_12_" d="M2.63396 12.3105L0.685047 18.2914C0.508687 18.8344 0.699143 19.4339 1.16464 19.7724L17.9887 31.9963L2.63396 12.3105Z" fill="#FCA326"/>
<path id="path74_5_" d="M2.63403 12.3108H11.5982L7.74025 0.45492C7.54279 -0.15164 6.68229 -0.15164 6.47774 0.45492L2.63403 12.3108Z" fill="#E24329"/>
<path id="path82_12_" d="M33.3533 12.3105L35.2952 18.2914C35.4715 18.8344 35.2811 19.4339 34.8156 19.7724L17.9893 31.9964L33.3533 12.3105Z" fill="#FCA326"/>
<path id="path86_5_" d="M33.3518 12.3108H24.3877L28.2385 0.45492C28.436 -0.15164 29.2965 -0.15164 29.501 0.45492L33.3518 12.3108Z" fill="#E24329"/>
<path id="Vector" d="M17.9893 31.9964L24.3892 12.3105H33.3533L17.9893 31.9964Z" fill="#FC6D26"/>
<path id="Vector_2" d="M17.9888 31.9964L2.63403 12.3105H11.5982L17.9888 31.9964Z" fill="#FC6D26"/>
</g>
</g>
</g>
</svg>
