<svg width="60" height="60" viewBox="0 0 60 60" fill="none" xmlns="http://www.w3.org/2000/svg">
<rect width="60" height="60" rx="6" fill="#161A1D"/>
<g clip-path="url(#clip0_1104_2961)">
<path d="M49.6265 27.2946C48.6457 26.6345 46.0691 26.353 44.196 26.8573C44.0952 24.9912 43.1328 23.4185 41.3723 22.0472L40.721 21.6099L40.2866 22.2659C39.4333 23.5613 39.0736 25.2881 39.2004 26.8579C39.3011 27.825 39.6371 28.9118 40.2866 29.7006C37.8481 31.1151 35.601 30.7939 25.6478 30.7939H10.2813C10.2363 33.0416 10.5977 37.3646 13.3468 40.884C13.6502 41.2727 13.9832 41.649 14.3447 42.0111C16.58 44.2493 19.9571 45.8908 25.0072 45.8949C32.7109 45.902 39.3118 41.7373 43.3272 31.6686C44.6487 31.6905 48.1361 31.905 49.8428 28.6072C49.8843 28.5515 50.2771 27.7326 50.2771 27.7326L49.6265 27.2952V27.2946ZM20.3097 24.9752H15.9886V29.2964H20.3097V24.9752ZM25.8926 24.9752H21.5714V29.2964H25.8926V24.9752ZM31.4754 24.9752H27.1542V29.2964H31.4754V24.9752ZM37.0582 24.9752H32.737V29.2964H37.0582V24.9752ZM14.7281 24.9752H10.4057V29.2964H14.7269V24.9752H14.7281ZM20.3109 19.5169H15.9897V23.838H20.3109V19.5169ZM25.8937 19.5169H21.5726V23.838H25.8937V19.5169ZM31.4766 19.5169H27.1554V23.838H31.4766V19.5169ZM31.4748 14.0591H27.1536V18.3803H31.4748V14.0591Z" fill="#1D63ED"/>
</g>
<defs>
<clipPath id="clip0_1104_2961">
<rect width="40" height="40" fill="white" transform="translate(10 10)"/>
</clipPath>
</defs>
</svg>
