<svg width="20" height="20" viewBox="0 0 20 20" fill="none" xmlns="http://www.w3.org/2000/svg">
<path d="M13.3545 17.1423L13.3548 14.4641C13.3549 12.9848 12.1557 11.7855 10.6764 11.7855H4.67868C3.19957 11.7855 2.00047 12.9845 2.0003 14.4636L2 17.1423M17.9998 17.1424L18 14.4643C18.0001 12.985 16.8009 11.7857 15.3216 11.7857M12.8386 3.38375C13.4964 3.87178 13.9226 4.65416 13.9226 5.5361C13.9226 6.41804 13.4964 7.20042 12.8386 7.68845M10.4115 5.53595C10.4115 7.01518 9.21235 8.21433 7.73312 8.21433C6.25389 8.21433 5.05474 7.01518 5.05474 5.53595C5.05474 4.05673 6.25389 2.85757 7.73312 2.85757C9.21235 2.85757 10.4115 4.05673 10.4115 5.53595Z" stroke="currentColor" stroke-width="1.4" stroke-linecap="round" stroke-linejoin="round"/>
</svg>
