<svg width="20" height="20" viewBox="0 0 20 20" fill="none" xmlns="http://www.w3.org/2000/svg">
<path d="M9.04118 15.77C8.76504 15.77 8.54118 15.5462 8.54118 15.27V4.73001C8.54118 4.45387 8.76504 4.23001 9.04118 4.23001H10.9588C11.2349 4.23001 11.4588 4.45387 11.4588 4.73001V15.27C11.4588 15.5462 11.2349 15.77 10.9588 15.77H9.04118ZM4.72998 11.4588C4.45384 11.4588 4.22998 11.235 4.22998 10.9588V9.04121C4.22998 8.76507 4.45384 8.54121 4.72998 8.54121H15.27C15.5461 8.54121 15.77 8.76507 15.77 9.04121V10.9588C15.77 11.235 15.5461 11.4588 15.27 11.4588H4.72998Z" fill="currentColor"/>
</svg>
