<svg width="20" height="20" viewBox="0 0 20 20" fill="none" xmlns="http://www.w3.org/2000/svg">
<path d="M7.29677 3.54621L8.356 2.02401C8.51179 1.80013 8.76727 1.66666 9.04002 1.66666H10.5442C10.816 1.66666 11.0706 1.79914 11.2266 2.02165L12.2748 3.51692M7.29677 3.54621C7.00772 3.95858 6.52727 4.16065 6.01731 4.12462M7.29677 3.54621C7.00632 3.95759 6.52727 4.16232 6.01731 4.12462M6.01731 4.12462L4.14307 4.00695C3.87569 3.99017 3.61655 4.10295 3.44662 4.31005L2.4962 5.46839C2.31603 5.68797 2.26012 5.98419 2.34783 6.25434L2.89437 7.93752M2.89437 7.93752C2.96848 8.1778 2.97796 8.43521 2.92493 8.67833M2.89437 7.93752C2.96953 8.17737 2.97866 8.43427 2.92457 8.68082M2.92493 8.67833C2.87119 8.91856 2.756 9.1454 2.58496 9.32909M2.92493 8.67833L2.92457 8.68082M2.58496 9.32909L1.34654 10.661C1.1562 10.8657 1.08118 11.1522 1.14675 11.424L1.48221 12.8141C1.54757 13.085 1.74394 13.3052 2.00553 13.4011L3.70707 14.0247C3.94448 14.1166 4.14959 14.2659 4.30482 14.454M2.58496 9.32909C2.75705 9.14691 2.87119 8.9208 2.92457 8.68082M4.30482 14.454C4.459 14.6427 4.56401 14.8704 4.60475 15.117M4.30482 14.454C4.46041 14.6427 4.56577 14.8698 4.60475 15.117M4.30482 14.454L4.30236 14.4513C4.29218 14.439 4.28129 14.4261 4.27076 14.4141M4.60475 15.117L4.89448 16.8966C4.93886 17.1693 5.11549 17.4022 5.36605 17.5185L6.72266 18.1484C6.96522 18.261 7.24709 18.2504 7.48047 18.1198L9.07528 17.2276M9.07528 17.2276C9.29619 17.1035 9.54274 17.0412 9.78929 17.0409M9.07528 17.2276C9.16273 17.1778 9.2544 17.1381 9.34852 17.1083C9.49147 17.063 9.64038 17.0406 9.78929 17.0409M9.78929 17.0409C9.91748 17.0412 10.0457 17.0582 10.1707 17.0917C10.287 17.1228 10.4 17.1682 10.5072 17.2276M9.78929 17.0409C10.0369 17.0406 10.2848 17.1028 10.5072 17.2276M10.5072 17.2276L12.1767 18.1314C12.4111 18.2583 12.6921 18.2654 12.9326 18.1505L14.2827 17.5057C14.5324 17.3864 14.7066 17.151 14.7477 16.8774L15.0072 15.1483M15.0072 15.1483C15.0462 14.9004 15.1498 14.671 15.3036 14.4807M15.0072 15.1483C15.0448 14.8998 15.1491 14.6707 15.3036 14.4807M15.3036 14.4807C15.4564 14.2923 15.659 14.1422 15.895 14.0494M15.3036 14.4807C15.456 14.2916 15.658 14.1411 15.895 14.0494M15.895 14.0494L17.6142 13.3757C17.8708 13.2751 18.0611 13.0541 18.1225 12.7854L18.4439 11.3783C18.5051 11.1103 18.4302 10.8293 18.2437 10.6273L16.9978 9.27829M16.9978 9.27829C16.8236 9.09396 16.7021 8.87378 16.6431 8.63977M16.9978 9.27829C16.916 9.1922 16.8458 9.09808 16.7885 8.9983C16.7232 8.88499 16.6744 8.76437 16.6431 8.63977M16.6431 8.63977C16.5852 8.40743 16.5887 8.16123 16.6621 7.92293L17.2009 6.19571C17.2846 5.92755 17.2275 5.63528 17.0491 5.41829L16.1221 4.29078C15.9502 4.0817 15.6875 3.96914 15.4175 3.98891L13.5648 4.12462M13.5648 4.12462C13.3112 4.14253 13.0618 4.09422 12.8399 3.99031M13.5648 4.12462C13.3109 4.14356 13.0618 4.09486 12.8399 3.99031M12.8399 3.99031C12.6165 3.88507 12.4205 3.72324 12.2748 3.51692M12.8399 3.99031C12.6162 3.88546 12.4198 3.72406 12.2748 3.51692M2.92457 8.68082L2.92528 8.67717M12.6134 10.0088C12.6134 11.563 11.3251 12.8228 9.73626 12.8228C8.14739 12.8228 6.85916 11.563 6.85916 10.0088C6.85916 8.45471 8.14739 7.19487 9.73626 7.19487C11.3251 7.19487 12.6134 8.45471 12.6134 10.0088Z" stroke="currentColor" stroke-width="1.4"/>
</svg>
