<svg width="18" height="16" viewBox="0 0 18 16" fill="none" xmlns="http://www.w3.org/2000/svg">
<path fill-rule="evenodd" clip-rule="evenodd" d="M0.5 1.99995C0.5 1.28198 1.08203 0.699951 1.8 0.699951H16.2C16.918 0.699951 17.5 1.28198 17.5 1.99995C17.5 2.71792 16.918 3.29995 16.2 3.29995H1.8C1.08203 3.29995 0.5 2.71792 0.5 1.99995ZM0.5 7.99995C0.5 7.28198 1.08203 6.69995 1.8 6.69995H16.2C16.918 6.69995 17.5 7.28198 17.5 7.99995C17.5 8.71792 16.918 9.29995 16.2 9.29995H1.8C1.08203 9.29995 0.5 8.71792 0.5 7.99995ZM1.8 12.7C1.08203 12.7 0.5 13.282 0.5 14C0.5 14.7179 1.08203 15.3 1.8 15.3H16.2C16.918 15.3 17.5 14.7179 17.5 14C17.5 13.282 16.918 12.7 16.2 12.7H1.8Z" fill="currentColor"/>
</svg>
